<svg xmlns="http://www.w3.org/2000/svg" viewBox="-136.0 -130.0 285.0 349.0" width="285" height="349" role="img" aria-label="El Mundialet">
<!-- El Mundialet. Letterforms are Bungee (David Jonathan Ross, SIL Open Font License 1.1) converted to outlines, so the mark needs no webfont. -->
  <title>El Mundialet</title>
  <defs><clipPath id="cp0"><rect x="-66.0" y="-150.0" width="66.0" height="49.5" rx="5"/></clipPath><clipPath id="cp1"><rect x="-66.0" y="-176.0" width="66.0" height="49.5" rx="5"/></clipPath><clipPath id="cp2"><rect x="0.0" y="-200.0" width="66.0" height="49.5" rx="5"/></clipPath><clipPath id="cp3"><rect x="0.0" y="-176.0" width="66.0" height="49.5" rx="5"/></clipPath><clipPath id="cp4"><rect x="0.0" y="-150.0" width="66.0" height="49.5" rx="5"/></clipPath></defs>
  <g transform="translate(13 13)"><g fill="#0A0512" stroke="#0A0512"><g transform="translate(0.0 66.0) rotate(-38)"><path d="M0 0V-150" fill="none" stroke-width="9.0" stroke-linecap="round"/><rect x="-66.0" y="-150.0" width="66.0" height="49.5" rx="5"/></g><g transform="translate(0.0 66.0) rotate(-19)"><path d="M0 0V-176" fill="none" stroke-width="9.0" stroke-linecap="round"/><rect x="-66.0" y="-176.0" width="66.0" height="49.5" rx="5"/></g><g transform="translate(0.0 66.0) rotate(0)"><path d="M0 0V-200" fill="none" stroke-width="9.0" stroke-linecap="round"/><rect x="0.0" y="-200.0" width="66.0" height="49.5" rx="5"/></g><g transform="translate(0.0 66.0) rotate(19)"><path d="M0 0V-176" fill="none" stroke-width="9.0" stroke-linecap="round"/><rect x="0.0" y="-176.0" width="66.0" height="49.5" rx="5"/></g><g transform="translate(0.0 66.0) rotate(38)"><path d="M0 0V-150" fill="none" stroke-width="9.0" stroke-linecap="round"/><rect x="0.0" y="-150.0" width="66.0" height="49.5" rx="5"/></g></g><g fill="#0A0512"><rect x="-92" y="0" width="184" height="24" rx="10"/><path d="M-82 24H82C78 88 54 126 24 130H-24C-54 126 -78 88 -82 24Z"/><rect x="-17" y="128" width="34" height="34" rx="4"/><path d="M-34 160H34L48 184H-48Z"/><rect x="-84" y="180" width="168" height="26" rx="9"/></g><g stroke="#0A0512"><path d="M-90 36C-130 38 -136 102 -82 106" fill="none" stroke-width="20" stroke-linecap="round"/><path d="M90 36C130 38 136 102 82 106" fill="none" stroke-width="20" stroke-linecap="round"/></g></g><g stroke="#FFF3E2"><g transform="translate(0.0 66.0) rotate(-38)"><path d="M0 0V-150" fill="none" stroke-width="9.0" stroke-linecap="round"/><g clip-path="url(#cp0)"><g transform="translate(-66.0 -150.0) scale(0.10312)"><g fill-rule="evenodd" stroke-width="1pt">
    <path fill="#ffe800" d="M0 0h640v480H0z"/>
    <path fill="#00148e" d="M0 240h640v240H0z"/>
    <path fill="#da0010" d="M0 360h640v120H0z"/>
  </g></g></g><rect x="-66.0" y="-150.0" width="66.0" height="49.5" rx="5" fill="none" stroke="#FFF3E2" stroke-opacity="0.45" stroke-width="3"/></g><g transform="translate(0.0 66.0) rotate(-19)"><path d="M0 0V-176" fill="none" stroke-width="9.0" stroke-linecap="round"/><g clip-path="url(#cp1)"><g transform="translate(-66.0 -176.0) scale(0.10312)"><defs>
    <clipPath id="JP_jp-a">
      <path fill-opacity=".7" d="M-88 32h640v480H-88z"/>
    </clipPath>
  </defs>
  <g fill-rule="evenodd" stroke-width="1pt" clip-path="url(#JP_jp-a)" transform="translate(88 -32)">
    <path fill="#fff" d="M-128 32h720v480h-720z"/>
    <circle cx="523.1" cy="344.1" r="194.9" fill="#bc002d" transform="translate(-168.4 8.6)scale(.76554)"/>
  </g></g></g><rect x="-66.0" y="-176.0" width="66.0" height="49.5" rx="5" fill="none" stroke="#FFF3E2" stroke-opacity="0.45" stroke-width="3"/></g><g transform="translate(0.0 66.0) rotate(0)"><path d="M0 0V-200" fill="none" stroke-width="9.0" stroke-linecap="round"/><g clip-path="url(#cp2)"><g transform="translate(0.0 -200.0) scale(0.10312)"><path fill="#fcdd09" d="M0 0h640v480H0z"/>
  <path stroke="#da121a" stroke-width="60" d="M0 90h810m0 120H0m0 120h810m0 120H0" transform="scale(.79012 .88889)"/></g></g><rect x="0.0" y="-200.0" width="66.0" height="49.5" rx="5" fill="none" stroke="#FFF3E2" stroke-opacity="0.45" stroke-width="3"/></g><g transform="translate(0.0 66.0) rotate(19)"><path d="M0 0V-176" fill="none" stroke-width="9.0" stroke-linecap="round"/><g clip-path="url(#cp3)"><g transform="translate(0.0 -176.0) scale(0.10312)"><path fill="#005293" d="M0 0h640v480H0z"/>
  <path fill="#fecb00" d="M176 0v192H0v96h176v192h96V288h368v-96H272V0z"/></g></g><rect x="0.0" y="-176.0" width="66.0" height="49.5" rx="5" fill="none" stroke="#FFF3E2" stroke-opacity="0.45" stroke-width="3"/></g><g transform="translate(0.0 66.0) rotate(38)"><path d="M0 0V-150" fill="none" stroke-width="9.0" stroke-linecap="round"/><g clip-path="url(#cp4)"><g transform="translate(0.0 -150.0) scale(0.10312)"><g fill-rule="evenodd">
    <path fill="#000001" d="m0 0 320 240L0 480zm640 0L320 240l320 240z"/>
    <path fill="#090" d="m0 0 320 240L640 0zm0 480 320-240 320 240z"/>
    <path fill="#fc0" d="M640 0h-59.6L0 435.3V480h59.6L640 44.7z"/>
    <path fill="#fc0" d="M0 0v44.7L580.4 480H640v-44.7L59.6 0z"/>
  </g></g></g><rect x="0.0" y="-150.0" width="66.0" height="49.5" rx="5" fill="none" stroke="#FFF3E2" stroke-opacity="0.45" stroke-width="3"/></g></g><g fill="#FFC93C"><rect x="-92" y="0" width="184" height="24" rx="10"/><path d="M-82 24H82C78 88 54 126 24 130H-24C-54 126 -78 88 -82 24Z"/><rect x="-17" y="128" width="34" height="34" rx="4"/><path d="M-34 160H34L48 184H-48Z"/><rect x="-84" y="180" width="168" height="26" rx="9"/></g><g stroke="#FFC93C"><path d="M-90 36C-130 38 -136 102 -82 106" fill="none" stroke-width="20" stroke-linecap="round"/><path d="M90 36C130 38 136 102 82 106" fill="none" stroke-width="20" stroke-linecap="round"/></g>
</svg>
